<svg xmlns="http://www.w3.org/2000/svg" viewBox="0 0 32 32" id="skype"><g><path fill="#999" d="M16 0C7.163 0 0 7.163 0 16c0 8.836 7.163 16 16 16s16-7.164 16-16c0-8.837-7.163-16-16-16z"></path><path fill="#FFF" d="M16.735 22.517c-2.644.14-3.881-.456-5.015-1.541-1.266-1.212-.758-2.594.274-2.663 1.031-.07 1.65 1.191 2.2 1.543.55.35 2.64 1.147 3.745-.142 1.202-1.401-.8-2.126-2.268-2.346-2.095-.316-4.741-1.472-4.535-3.75.206-2.276 1.896-3.443 3.675-3.608 2.268-.21 3.744.35 4.912 1.367 1.35 1.174.619 2.486-.24 2.592-.857.105-1.819-1.931-3.709-1.962-1.948-.031-3.264 2.067-.86 2.663 2.406.596 4.982.84 5.909 3.082.928 2.243-1.442 4.624-4.088 4.765zm7.456-5.334c.05-.373.078-.753.078-1.138 0-4.633-3.722-8.39-8.312-8.39-.456 0-.904.038-1.339.111a4.895 4.895 0 0 0-2.709-.817c-2.741 0-4.96 2.253-4.96 5.033 0 1.012.293 1.951.799 2.74a8.483 8.483 0 0 0-.103 1.322c0 4.634 3.72 8.39 8.312 8.39.518 0 1.023-.051 1.514-.141.762.479 1.66.759 2.622.759 2.74 0 4.96-2.253 4.96-5.033a5.066 5.066 0 0 0-.862-2.836z"></path></g></svg>